<?xml version="1.0" encoding="utf-8"?>
<!-- Generator: Adobe Illustrator 24.0.0, SVG Export Plug-In . SVG Version: 6.00 Build 0)  -->
<svg version="1.1" xmlns="http://www.w3.org/2000/svg" xmlns:xlink="http://www.w3.org/1999/xlink" x="0px" y="0px"
	 viewBox="0 0 32 32" style="enable-background:new 0 0 32 32;" xml:space="preserve">
<style type="text/css">
	.st0{display:none;}
	.st1{display:inline;fill-rule:evenodd;clip-rule:evenodd;}
	.st2{fill-rule:evenodd;clip-rule:evenodd;}
</style>
<g id="Layer_1" class="st0">
	<path class="st1" d="M22.5,32h-13c-1.66,0-3-1.34-3-3V3c0-1.66,1.34-3,3-3h13c1.66,0,3,1.34,3,3v26C25.5,30.66,24.16,32,22.5,32z
		 M24.5,3c0-1.11-0.9-2-2-2h-13c-1.1,0-2,0.89-2,2v26c0,1.1,0.9,2,2,2h13c1.1,0,2-0.9,2-2V3z M16.03,20h-0.05c0,0-0.01,0-0.01,0
		c-2.45-0.02-4.41-2.01-4.48-4.44l0-4.42c0-0.08,0.07-0.14,0.14-0.14h3.63c0.08,0,0.14,0.06,0.14,0.14v3.77v1.76v0.21
		c0,1.14,0.96,2.05,2.12,1.97c0.97-0.07,1.76-0.85,1.83-1.83c0.08-1.15-0.83-2.11-1.97-2.11h-1.31c-0.08,0-0.15-0.06-0.15-0.15
		v-3.61c0-0.09,0.08-0.16,0.17-0.16h0c2.44,0.05,4.41,2.05,4.41,4.5C20.52,17.97,18.51,19.98,16.03,20z M14,27h4
		c0.28,0,0.5,0.22,0.5,0.5S18.28,28,18,28h-4c-0.28,0-0.5-0.22-0.5-0.5S13.72,27,14,27z"/>
</g>
<g id="Layer_2" class="st0">
	<path class="st1" d="M26.5,20.52h-12c-2.48,0-4.51-2.02-4.51-4.5c0-2.48,2.02-4.5,4.51-4.5h12c2.48,0,4.51,2.02,4.51,4.5
		C31,18.5,28.98,20.52,26.5,20.52z M26.5,12.53h-12c-1.93,0-3.49,1.56-3.49,3.49c0,1.92,1.57,3.49,3.49,3.49h12
		c1.93,0,3.49-1.56,3.49-3.49C29.99,14.09,28.42,12.53,26.5,12.53z M16,15.5h9v1h-9V15.5z M26.5,9.51h-12
		c-2.48,0-4.51-2.02-4.51-4.5c0-2.48,2.02-4.5,4.51-4.5h12C28.98,0.5,31,2.52,31,5C31,7.49,28.98,9.51,26.5,9.51z M26.5,1.51h-12
		C12.57,1.51,11,3.08,11,5s1.57,3.49,3.49,3.49h12c1.93,0,3.49-1.57,3.49-3.49S28.42,1.51,26.5,1.51z M16,4.52h9v0.97h-9V4.52z
		 M9.01,27.87c0,0.32-0.09,0.6-0.27,0.85C8.57,28.96,8.32,29.15,8,29.29c-0.32,0.14-0.7,0.2-1.13,0.2c-0.34,0-0.67-0.04-1.01-0.12
		C5.52,29.29,5.23,29.19,5,29.06l0.38-0.66c0.25,0.11,0.5,0.2,0.76,0.26c0.26,0.06,0.5,0.09,0.72,0.09c0.36,0,0.63-0.08,0.83-0.23
		c0.2-0.15,0.29-0.37,0.29-0.65c0-0.26-0.09-0.47-0.28-0.62c-0.19-0.15-0.45-0.22-0.78-0.22c-0.17,0-0.36,0.02-0.55,0.05L6,26.68
		l1.73-1.48H5.15v-0.7h3.67v0.7l-1.4,1.16c0.49,0.05,0.88,0.21,1.16,0.48C8.87,27.12,9.01,27.46,9.01,27.87z M4.83,17.72l1.7-1.87
		c0.22-0.24,0.37-0.44,0.46-0.58c0.08-0.14,0.13-0.28,0.13-0.41c0-0.2-0.07-0.35-0.21-0.46c-0.14-0.11-0.33-0.17-0.58-0.17
		c-0.19,0-0.39,0.03-0.59,0.09c-0.2,0.06-0.39,0.15-0.58,0.27l-0.38-0.61c0.21-0.14,0.46-0.26,0.75-0.35
		c0.29-0.09,0.58-0.13,0.86-0.13c0.31,0,0.58,0.05,0.82,0.16s0.42,0.26,0.55,0.46c0.13,0.2,0.19,0.42,0.19,0.68
		c0,0.23-0.06,0.46-0.18,0.69c-0.12,0.23-0.33,0.5-0.62,0.81l-1.34,1.43h2.17v0.7H4.83V17.72z M6.16,3.42L5.05,3.79L4.81,3.14
		L6.27,2.6H7v4.81H6.16V3.42z M4.52,6.89C4.19,7.3,3.68,7.5,3.01,7.5c-0.68,0-1.18-0.2-1.51-0.61C1.16,6.49,1,5.86,1,5.01
		c0-0.86,0.16-1.49,0.49-1.89c0.33-0.4,0.83-0.6,1.51-0.6c0.68,0,1.19,0.2,1.52,0.6c0.33,0.4,0.5,1.03,0.5,1.89
		C5.02,5.86,4.85,6.49,4.52,6.89z M3.79,3.65C3.63,3.36,3.36,3.22,3,3.22c-0.36,0-0.62,0.14-0.78,0.43
		C2.05,3.94,1.97,4.39,1.97,5.01s0.08,1.07,0.25,1.36C2.38,6.65,2.65,6.8,3.01,6.8S3.63,6.65,3.8,6.37
		c0.16-0.28,0.25-0.74,0.25-1.36S3.96,3.94,3.79,3.65z M2.99,13.5c0.68,0,1.18,0.2,1.51,0.6C4.84,14.51,5,15.14,5,16
		c0,0.86-0.16,1.49-0.5,1.9C4.17,18.31,3.67,18.51,3,18.51c-0.67,0-1.17-0.2-1.5-0.61C1.16,17.5,1,16.87,1,16
		c0-0.86,0.16-1.5,0.49-1.9C1.82,13.7,2.32,13.5,2.99,13.5z M2.21,17.37C2.38,17.66,2.64,17.8,3,17.8c0.36,0,0.62-0.14,0.79-0.43
		c0.16-0.29,0.25-0.74,0.25-1.37c0-0.62-0.08-1.08-0.25-1.37c-0.17-0.29-0.43-0.43-0.79-0.43c-0.36,0-0.62,0.14-0.78,0.43
		C2.05,14.93,1.97,15.38,1.97,16C1.97,16.63,2.05,17.08,2.21,17.37z M2.98,24.51c0.67,0,1.17,0.2,1.5,0.6
		c0.33,0.4,0.49,1.03,0.49,1.89c0,0.85-0.16,1.48-0.49,1.89c-0.33,0.4-0.83,0.6-1.49,0.6s-1.16-0.2-1.49-0.6
		C1.16,28.48,1,27.86,1,27c0-0.86,0.16-1.49,0.49-1.89C1.81,24.71,2.31,24.51,2.98,24.51z M2.2,28.36c0.16,0.28,0.42,0.43,0.78,0.43
		c0.36,0,0.62-0.14,0.78-0.43c0.16-0.29,0.25-0.74,0.25-1.36c0-0.62-0.08-1.07-0.25-1.36c-0.17-0.29-0.43-0.43-0.78-0.43
		c-0.35,0-0.61,0.14-0.77,0.43S1.96,26.38,1.96,27C1.96,27.62,2.04,28.07,2.2,28.36z M14.5,22.49h12c2.48,0,4.51,2.02,4.51,4.5
		c0,2.48-2.02,4.5-4.51,4.5h-12c-2.48,0-4.51-2.02-4.51-4.5C9.99,24.51,12.01,22.49,14.5,22.49z M14.5,30.49h12
		c1.93,0,3.49-1.57,3.49-3.49s-1.57-3.49-3.49-3.49h-12C12.57,23.51,11,25.07,11,27S12.57,30.49,14.5,30.49z M25,27.51h-9v-1h9
		V27.51z"/>
</g>
<g id="Layer_3" class="st0">
	<path class="st1" d="M27.5,32h-4c-1.66,0-3-1.34-3-3V18c0-1.66,1.34-3,3-3h4c1.66,0,3,1.34,3,3v11C30.5,30.66,29.16,32,27.5,32z
		 M29.5,18c0-1.1-0.9-2-2-2h-4c-1.1,0-2,0.9-2,2v11c0,1.1,0.9,2,2,2h4c1.1,0,2-0.9,2-2V18z M26.05,29h-1.07
		c-0.26,0-0.47-0.22-0.47-0.5c0-0.28,0.21-0.5,0.47-0.5h1.07c0.26,0,0.47,0.22,0.47,0.5C26.51,28.77,26.31,29,26.05,29z
		 M12.51,19.69l-1.23,0.3c-2.67-2.55-2.14-6.38,0.47-8.99l0.76,0.76C10.14,13.94,9.61,17.3,12.51,19.69z M13.74,19
		c-0.79-0.8-1.22-1.87-1.22-3s0.43-2.2,1.22-3l0.77,0.79c-0.58,0.59-0.9,1.38-0.9,2.22c0,0.84,0.32,1.62,0.9,2.22L13.74,19z
		 M15.8,16.72c-0.39-0.39-0.39-1.03,0-1.43s1.02-0.39,1.41,0c0.39,0.39,0.39,1.03,0,1.43C16.82,17.11,16.18,17.11,15.8,16.72z
		 M25.22,14.02h-0.4c-0.17,0-0.3-0.15-0.3-0.32V9.56c0-0.16-0.11-0.38-0.24-0.48L13.75,1.31c-0.13-0.1-0.35-0.1-0.48,0L2.74,9.08
		C2.6,9.18,2.5,9.39,2.5,9.56l0,16.14c0,0.17,0.13,0.3,0.3,0.3h16.42c0.16,0,0.3,0.14,0.3,0.3v0.4c0,0.17-0.14,0.3-0.3,0.3H1.8
		c-0.16,0-0.3-0.14-0.3-0.3V9.05c0-0.16,0.11-0.38,0.24-0.48l11.53-8.51c0.13-0.1,0.35-0.1,0.48,0l11.53,8.51
		c0.13,0.1,0.24,0.31,0.24,0.48v4.64C25.52,13.87,25.38,14.02,25.22,14.02z"/>
</g>
<g id="Layer_4" class="st0">
	<path class="st1" d="M28.53,19.51h-0.04c0,0-0.01,0-0.01,0c-1.9-0.01-3.42-1.57-3.47-3.46l0-3.44c0-0.06,0.05-0.11,0.11-0.11h2.81
		c0.06,0,0.11,0.05,0.11,0.11v2.93v1.37v0.16c0,0.88,0.74,1.59,1.64,1.53c0.75-0.05,1.37-0.67,1.42-1.42
		c0.06-0.9-0.65-1.64-1.53-1.64h-1.02c-0.06,0-0.11-0.05-0.11-0.11v-2.8c0-0.07,0.06-0.13,0.13-0.13h0c1.89,0.04,3.42,1.59,3.42,3.5
		C32,17.94,30.45,19.5,28.53,19.51z M23.22,20.49C21.79,19.3,21,17.7,21,16s0.79-3.29,2.22-4.49L24,12.23
		c-1.21,1.01-1.87,2.35-1.87,3.77c0,1.42,0.66,2.76,1.87,3.77L23.22,20.49z M19.1,16c0,2.19,1.04,4.24,2.92,5.79l-0.75,0.71
		C19.16,20.77,18,18.46,18,16c0-2.46,1.16-4.77,3.27-6.5l0.75,0.71C20.14,11.76,19.1,13.81,19.1,16z M7.06,16.29H5.2l-0.36,1.12
		H3.99l1.7-4.81h0.89l1.7,4.81H7.41L7.06,16.29z M6.12,13.38l-0.7,2.22h1.41L6.12,13.38z M12.01,26.99c0,0.27-0.22,0.5-0.5,0.5H7.5
		c-0.28,0-0.5-0.22-0.5-0.5s0.22-0.5,0.5-0.5h4.01C11.79,26.49,12.01,26.72,12.01,26.99z M12.19,15.99c0,0.45-0.14,0.8-0.42,1.05
		c-0.28,0.25-0.67,0.37-1.17,0.37H9.08H8.64V12.6h0.81h0.92c0.49,0,0.86,0.12,1.13,0.36c0.27,0.24,0.4,0.57,0.4,1
		c0,0.46-0.21,0.77-0.64,0.92C11.88,15.05,12.19,15.42,12.19,15.99z M10.33,13.31H9.45v1.3h0.92c0.47,0,0.7-0.21,0.7-0.64
		C11.08,13.53,10.83,13.31,10.33,13.31z M10.6,15.29H9.45v1.41h1.19c0.47,0,0.7-0.23,0.7-0.7C11.35,15.53,11.1,15.29,10.6,15.29z
		 M14.68,16.76c0.41,0,0.75-0.08,1.03-0.23l0.28,0.6c-0.15,0.11-0.34,0.2-0.58,0.26c-0.24,0.07-0.5,0.1-0.77,0.1
		c-0.71,0-1.27-0.21-1.66-0.63c-0.39-0.42-0.59-1-0.59-1.76c0-0.53,0.09-0.98,0.27-1.38c0.18-0.39,0.44-0.69,0.77-0.9
		c0.33-0.21,0.73-0.31,1.18-0.31c0.25,0,0.49,0.03,0.72,0.1c0.23,0.06,0.44,0.15,0.62,0.27l-0.28,0.62
		c-0.36-0.17-0.72-0.26-1.08-0.26c-0.43,0-0.77,0.16-1,0.47c-0.24,0.31-0.36,0.76-0.36,1.34c0,0.57,0.12,0.99,0.37,1.28
		C13.85,16.61,14.21,16.76,14.68,16.76z M18.01,3.5c0-1.11-0.9-2-2-2H3c-1.11,0-2,0.89-2,2v25c0,1.1,0.9,2,2,2h13c1.11,0,2-0.9,2-2
		v-5h1v5c0,1.66-1.34,3-3,3H3c-1.66,0-3-1.34-3-3v-25c0-1.66,1.34-3,3-3h13c1.66,0,3,1.34,3,3v5h-1V3.5z"/>
</g>
<g id="Layer_5" class="st0">
	<path class="st1" d="M17.23,19.98h-1.16c-0.07,0-0.13-0.06-0.13-0.13v-3.21c0-0.08,0.07-0.15,0.15-0.14h0
		c2.16,0.05,3.9,1.82,3.9,4.01c0,2.21-1.77,4-3.97,4.01h-0.04c0,0,0,0-0.01,0c-2.16-0.02-3.9-1.79-3.96-3.96l0-3.93
		c0-0.07,0.06-0.13,0.13-0.13h3.21c0.07,0,0.13,0.06,0.13,0.13v3.36v1.57v0.19c0,1.01,0.85,1.82,1.87,1.75
		c0.86-0.06,1.56-0.76,1.62-1.63C19.05,20.84,18.24,19.98,17.23,19.98z M23.89,31.5H8.11c-3.37,0-6.11-2.69-6.11-6V9.36
		c0-1.03,0.85-1.87,1.91-1.87h6.12V6.41c0-3.26,2.68-5.91,5.99-5.91c3.3,0,5.98,2.65,5.98,5.91v6.09h-0.99v-4h-8.01v-1h8.01V6.41
		c0-2.72-2.24-4.93-5-4.93s-5,2.21-5,4.93v6.09h-0.99V8.48H3.91c-0.5,0-0.9,0.4-0.9,0.88V25.5c0,2.77,2.29,5.02,5.1,5.02h15.78
		c2.81,0,5.1-2.25,5.1-5.02V9.36c0-0.49-0.4-0.88-0.9-0.88h-4.04V7.49h4.04c1.05,0,1.9,0.84,1.9,1.87V25.5
		C30,28.81,27.26,31.5,23.89,31.5z"/>
</g>
<g id="Layer_6" class="st0">
	<path class="st1" d="M16,20.5l-5.99-6.11l0.69-0.7L16,19.1L29.31,5.52L30,6.22L16,20.5z M14.73,6.11l1.91-1.95h-0.72
		c-7.13,0-12.93,5.91-12.93,13.17c0,7.26,5.8,13.17,12.93,13.17c7.13,0,12.93-5.91,12.93-13.17h0.99c0,7.81-6.24,14.17-13.92,14.17
		S2,25.14,2,17.33C2,9.52,8.25,3.16,15.92,3.16h0.72l-1.92-1.95l0.7-0.71l3.11,3.16l-3.11,3.16L14.73,6.11z"/>
</g>
<g id="Layer_7" class="st0">
	<path class="st1" d="M32,18.01l-3.57,0c-3.1,3.57-11.76,10.9-12.35,10.98L15.99,29l-0.08-0.01c-0.59-0.08-9.24-7.4-12.35-10.98H0
		v-1.01h2.77c-0.22-0.31-0.51-0.73-0.51-0.73c-0.83-1.39-1.27-2.96-1.27-4.57C0.99,6.91,4.81,3,9.5,3c2.51,0,4.89,1.14,6.5,3.09
		C17.6,4.14,19.98,3,22.49,3c4.69,0,8.5,3.91,8.5,8.71c0,1.61-0.43,3.18-1.25,4.54c-0.01,0.02-0.3,0.44-0.52,0.75l2.76,0L32,18.01z
		 M15.99,27.75c1.56-1.23,7.82-6.36,10.96-9.74h-3.32l-1.19-2.48l-1.69,2.57l-2.02-5.84l-3.32,10.88l-3.68-9.45l-2.08,4.32H5.04
		C8.19,21.4,14.44,26.52,15.99,27.75z M28.15,16.61c0.17-0.23,0.65-0.93,0.65-0.93c0.7-1.17,1.08-2.55,1.08-3.97
		c0-4.2-3.31-7.62-7.39-7.62c-2.39,0-4.65,1.21-6.03,3.23L15.99,8l-0.47-0.68C14.15,5.3,11.89,4.09,9.5,4.09
		c-4.07,0-7.38,3.42-7.38,7.62c0,1.41,0.38,2.8,1.1,3.99c0,0,0.47,0.68,0.63,0.9c0.09,0.13,0.21,0.27,0.32,0.4h4.87l2.81-5.82
		l3.47,8.9l3.38-11.06l2.36,6.82l1.44-2.19L24.2,17l3.64,0C27.94,16.87,28.05,16.73,28.15,16.61z"/>
</g>
<g id="Layer_8" class="st0">
	<path class="st1" d="M16,31C7.73,31,1,24.27,1,16S7.73,1,16,1s15,6.73,15,15S24.27,31,16,31z M16,2.03C8.3,2.03,2.03,8.3,2.03,16
		c0,7.7,6.27,13.97,13.97,13.97c7.7,0,13.97-6.27,13.97-13.97C29.97,8.3,23.7,2.03,16,2.03z M16,23.02c-3.86,0-6.99-3.15-6.99-7.01
		S12.15,8.99,16,8.99s7,3.15,7,7.01S19.86,23.02,16,23.02z M16,10.12c-3.23,0-5.87,2.64-5.87,5.88c0,3.24,2.63,5.88,5.87,5.88
		s5.87-2.64,5.87-5.88C21.87,12.76,19.24,10.12,16,10.12z"/>
</g>
<g id="Layer_9" class="st0">
	<path class="st1" d="M30.56,15.36c-0.49,0.96-1.32,1.67-2.34,2c-0.84,0.27-3.82,0.56-8.82,0.86c3.87,3.18,6.12,5.18,6.63,5.89
		c0.63,0.87,0.89,1.93,0.72,3c-0.17,1.06-0.74,2-1.6,2.63c-0.71,0.52-1.54,0.77-2.36,0.77c-1.24,0-2.47-0.58-3.25-1.66
		c-0.52-0.72-1.71-3.47-3.54-8.15c-1.82,4.67-3.02,7.43-3.54,8.15c-0.78,1.08-2.01,1.66-3.25,1.66c-0.82,0-1.64-0.25-2.36-0.77
		c-0.87-0.63-1.44-1.56-1.61-2.63c-0.17-1.06,0.09-2.13,0.72-3c0.52-0.72,2.76-2.71,6.64-5.89c-5-0.3-7.99-0.58-8.82-0.86
		c-1.02-0.33-1.85-1.04-2.34-2s-0.57-2.05-0.24-3.07c0.33-1.02,1.04-1.86,2-2.34C4.15,9.45,5.24,9.37,6.26,9.7
		c0.84,0.27,3.42,1.8,7.64,4.51c-1.26-4.85-1.91-7.79-1.91-8.68c0-2.22,1.8-4.03,4.01-4.03s4.02,1.81,4.02,4.03
		c0,0.88-0.65,3.82-1.91,8.68c4.22-2.71,6.8-4.23,7.64-4.51c2.1-0.69,4.38,0.47,5.06,2.58C31.13,13.31,31.05,14.4,30.56,15.36z
		 M20.35,28.25c0.98,1.35,2.87,1.65,4.21,0.67c0.65-0.48,1.08-1.17,1.2-1.97c0.13-0.8-0.06-1.6-0.54-2.25
		c-0.27-0.38-1.54-1.67-6.79-5.98c-0.38,0.6-0.97,1.05-1.65,1.24C19.24,26.27,20.08,27.87,20.35,28.25z M16,19.09
		c1.05,0,1.91-0.89,1.91-1.98s-0.86-1.98-1.91-1.98c-1.05,0-1.91,0.89-1.91,1.98S14.95,19.09,16,19.09z M5.95,10.65
		c-0.77-0.25-1.58-0.18-2.3,0.18c-0.72,0.37-1.25,0.99-1.5,1.76c-0.25,0.77-0.18,1.59,0.18,2.31c0.37,0.72,0.99,1.25,1.75,1.5
		c0.45,0.15,2.23,0.44,9.02,0.84c0-0.05-0.01-0.09-0.01-0.14c0-0.69,0.24-1.32,0.63-1.82C8.01,11.61,6.39,10.8,5.95,10.65z
		 M13.58,18.7c-5.26,4.32-6.53,5.61-6.81,5.99c-0.47,0.65-0.66,1.45-0.54,2.25c0.13,0.8,0.55,1.5,1.21,1.97
		c1.34,0.98,3.23,0.68,4.21-0.67c0.27-0.38,1.11-1.98,3.56-8.29C14.52,19.77,13.96,19.31,13.58,18.7z M16,2.51
		c-1.66,0-3.01,1.36-3.01,3.02c0,0.47,0.26,2.25,1.98,8.8c0.32-0.13,0.67-0.2,1.04-0.2c0.37,0,0.71,0.08,1.04,0.2
		c1.71-6.55,1.98-8.34,1.98-8.8C19.02,3.86,17.66,2.51,16,2.51z M29.85,12.59c-0.51-1.58-2.21-2.46-3.8-1.94
		c-0.44,0.15-2.06,0.95-7.77,4.63c0.39,0.5,0.63,1.13,0.63,1.82c0,0.05-0.01,0.09-0.02,0.14c6.79-0.39,8.58-0.69,9.02-0.84
		c0.77-0.25,1.39-0.78,1.75-1.5C30.04,14.18,30.1,13.36,29.85,12.59z"/>
</g>
<g id="Layer_10" class="st0">
	<path class="st1" d="M26.11,30.5H5.89C3.19,30.5,1,28.35,1,25.7V9.31c0-2.65,2.19-4.8,4.89-4.8h2.08v0.98H5.89
		C3.74,5.49,2,7.21,2,9.31V25.7c0,2.11,1.74,3.82,3.89,3.82h20.22c2.14,0,3.89-1.71,3.89-3.82V9.31c0-2.11-1.75-3.82-3.89-3.82H24
		V4.51h2.11c2.7,0,4.89,2.15,4.89,4.8V25.7C31,28.35,28.81,30.5,26.11,30.5z M21,1.5h1v7.01h-1V1.5z M12.2,22.62v-10.2l9,4.6
		L12.2,22.62z M13.2,20.83l5.99-3.73l-5.99-3.06V20.83z M11.98,4.51h8.02V5.5h-8.02V4.51z M9,1.5h1v7.01H9V1.5z"/>
</g>
<g id="Layer_11" class="st0">
	<path class="st1" d="M31.73,28.63L31.63,29H19.39h-1.02H0.25l-0.08-0.41C0.06,27.98,0,27.36,0,26.77C0,21.38,4.41,17,9.82,17
		c3.61,0,6.9,2,8.61,5.13c1.43-1.9,3.62-3.18,6-3.18c4.17,0,7.57,3.58,7.57,7.73C32,27.32,31.91,27.98,31.73,28.63z M9.82,17.99
		C4.96,17.99,1,21.93,1,26.77c0,0.4,0.03,0.81,0.09,1.23h17.43c0.06-0.42,0.12-0.83,0.12-1.23c0-1.21-0.25-2.38-0.73-3.49
		l-0.06-0.13C16.43,20.02,13.27,17.99,9.82,17.99z M24.43,19.94c-2.23,0-4.28,1.32-5.5,3.18c0.05,0.13,0.09,0.27,0.14,0.41
		c0.05,0.13,0.09,0.25,0.13,0.38c0.06,0.19,0.1,0.38,0.15,0.57c0.03,0.12,0.07,0.25,0.09,0.37c0.04,0.21,0.07,0.42,0.1,0.63
		c0.01,0.11,0.04,0.21,0.05,0.32c0.03,0.32,0.05,0.64,0.05,0.97c0,0.36-0.03,0.73-0.07,1.1c-0.01,0.04,0,0.09-0.01,0.13h11.29
		c0.09-0.45,0.14-0.89,0.14-1.33C31,23.08,28.06,19.94,24.43,19.94z M24,17c-2.76,0-5.01-2.24-5.01-5c0-2.76,2.25-5,5.01-5
		c2.76,0,5.01,2.24,5.01,5C29,14.75,26.76,17,24,17z M24,7.97c-2.22,0-4.03,1.8-4.03,4.02c0,2.22,1.81,4.02,4.03,4.02
		s4.03-1.8,4.03-4.02C28.02,9.78,26.22,7.97,24,7.97z M9.99,15.01c-3.31,0-6-2.69-6-6s2.69-6,6-6s6,2.69,6,6S13.3,15.01,9.99,15.01z
		 M9.99,3.98C7.22,3.98,4.97,6.23,4.97,9s2.25,5.02,5.02,5.02s5.02-2.25,5.02-5.02S12.76,3.98,9.99,3.98z"/>
</g>
<g id="Layer_12" class="st0">
	<path class="st1" d="M28.83,30.5h-4.66c-1.75,0-3.17-1.48-3.17-3.29V26.5H1.16C0.52,26.5,0,25.99,0,25.36V2.64
		C0,2.01,0.52,1.5,1.16,1.5h25.68c0.64,0,1.16,0.51,1.16,1.14v8.84h0.83c1.75,0,3.17,1.48,3.17,3.29v12.45
		C32,29.03,30.58,30.5,28.83,30.5z M12.92,2.48c0,0.59,0.48,1.07,1.07,1.07c0.59,0,1.07-0.48,1.07-1.07H12.92z M31.03,14.77
		c0-1.26-0.99-2.28-2.2-2.28h-4.66c-1.19,0-2.2,0.7-2.2,1.53v2.03H21v-2.03c0-1.4,1.42-2.54,3.17-2.54h2.84V2.64
		c0-0.09-0.07-0.16-0.16-0.16H15.99c0,1.1-0.9,1.99-2,1.99c-1.1,0-2-0.89-2-1.99H1.16C1.07,2.48,1,2.55,1,2.64v22.71
		c0,0.09,0.07,0.16,0.16,0.16H21v-2.79h0.97v4.48c0,1.26,0.99,2.28,2.2,2.28h4.66c1.21,0,2.2-1.02,2.2-2.28V14.77z M24.38,22.46
		l2.04-2H15.9l2.04,2l-0.71,0.7l-3.25-3.19l3.25-3.19l0.71,0.69l-2.04,2h10.52l-2.04-2l0.71-0.69l3.25,3.19l-3.25,3.19L24.38,22.46z
		 M20.22,7.54l-0.35,0.35c-1.46,1.59-3.56,2.6-5.88,2.6c-2.33,0-4.42-1-5.88-2.59L7.75,7.54l0.02-0.02C6.66,6.14,5.99,4.4,5.99,2.5
		h0.98c0,1.63,0.59,3.11,1.53,4.29l1.56-1.56l0.7,0.7l-1.6,1.59c1.15,1.09,2.65,1.81,4.33,1.93V7.06h0.98v2.39
		c1.68-0.12,3.18-0.84,4.33-1.93l-1.6-1.59l0.7-0.7l1.56,1.56C20.42,5.61,21,4.13,21,2.5h0.99c0,1.9-0.67,3.65-1.78,5.02L20.22,7.54
		z M25.57,27.48h1.87c0.31,0,0.57,0.23,0.57,0.51c0,0.28-0.25,0.51-0.57,0.51h-1.87c-0.31,0-0.57-0.23-0.57-0.51
		C25,27.71,25.25,27.48,25.57,27.48z"/>
</g>
<g id="Layer_13" class="st0">
	<path class="st1" d="M29,5.23l-5.24-1.57v4.05l-3.21-1.05V2.48L16.03,1l-4.65,1.48V5.5L8.17,6.56V3.33L3.18,4.97L3.15,5.29
		c-0.03,0.27-0.65,6.57,0.88,9.5l0.19,0.37L16,11.07l11.12,3.62c-0.22,0.74-0.72,2.28-1.47,4.11l-9.63-3.11L5.6,19.12l0.26,0.52
		c0.07,0.14,1.7,3.45,2.96,4.78l0.21,0.22l6.98-2.4l6.47,1.91c-0.85,1.07-2.98,3.49-6.44,5.66l-3.28-2.43l-0.01-0.01l-1.16,0.38
		l1,0.74l0,0L16,31l0.27-0.17c4.95-3.03,7.33-6.53,7.43-6.68l0.38-0.57l-8.09-2.39l-6.68,2.3c-0.84-1-1.86-2.88-2.33-3.79l9.04-2.96
		l10.17,3.28l0.17-0.41c1.19-2.82,1.79-5.02,1.82-5.11l0.13-0.46L16,10.02L4.7,13.94c-1-2.43-0.72-6.97-0.63-8.22l3.13-1.03v3.23
		l5.14-1.69V3.21l3.68-1.17l3.56,1.16v4.18l5.14,1.68V4.98l3.32,1V9.7l-0.01,0v0.47L29,10.49V9.66h0V5.23z"/>
</g>
<g id="Layer_14" class="st0">
	<path class="st1" d="M26.19,32H14.81c-1.83,0-3.32-1.47-3.32-3.27v-7.75H3.69c-0.66,0-1.2-0.55-1.2-1.22V1.22
		C2.5,0.55,3.03,0,3.69,0h12.6c0.66,0,1.2,0.55,1.2,1.22v0.79h8.7c1.83,0,3.32,1.47,3.32,3.27v23.45C29.5,30.53,28.02,32,26.19,32z
		 M12.43,3.01H5.7c-0.1,0-0.21,0.11-0.21,0.28v4.43C5.49,7.88,5.6,8,5.7,8h5.78V5.28C11.49,4.4,11.85,3.59,12.43,3.01z M16.49,1.22
		c0-0.12-0.09-0.21-0.2-0.21H3.69c-0.11,0-0.2,0.09-0.2,0.21v18.55c0,0.11,0.09,0.21,0.2,0.21h7.79V18h-6v-1h6v-1.98h-6v-1h6V12h-6
		v-1h6V9.01H5.75c-0.69,0-1.24-0.55-1.24-1.23V3.24c0-0.68,0.56-1.23,1.24-1.23h8.74v0.03c0.1-0.01,0.2-0.03,0.31-0.03h1.69V1.22z
		 M28.49,5.28c0-1.25-1.03-2.27-2.3-2.27H14.81c-1.27,0-2.3,1.02-2.3,2.27v23.45c0,1.25,1.03,2.27,2.3,2.27h11.38
		c1.27,0,2.3-1.02,2.3-2.27V5.28z M23.6,16.65c0,0.72,0.19,1.21,0.61,1.61l-0.79,0.75c-0.63-0.59-0.93-1.37-0.93-2.36
		c0-1.02,0.39-1.86,1.23-2.66l0.79,0.75C23.88,15.33,23.6,15.92,23.6,16.65z M20.61,16.64c0,1.43,0.57,2.73,1.59,3.64L21.41,21
		c-1.24-1.1-1.92-2.65-1.92-4.35c0-1.68,0.81-3.37,2.22-4.63l0.79,0.71C21.3,13.8,20.61,15.23,20.61,16.64z M17.52,16.63
		c0,2.16,0.86,4.23,2.36,5.67l-0.72,0.69c-1.69-1.62-2.66-3.94-2.66-6.36c0-2.45,1.04-4.81,2.92-6.63l0.72,0.69
		C18.45,12.32,17.52,14.44,17.52,16.63z"/>
</g>
<g id="Layer_15" class="st0">
	<path class="st1" d="M27.1,13.51c-1.35,0-2.6-0.57-3.52-1.54c-0.91,0.94-2.18,1.53-3.59,1.53c-2.76,0-5.01-2.24-5.01-5
		c0-2.75,2.25-5,5.01-5c1.41,0,2.68,0.59,3.59,1.53c0.91-0.97,2.17-1.54,3.52-1.54c2.7,0,4.9,2.25,4.9,5.01S29.8,13.51,27.1,13.51z
		 M20,4.55c-2.18,0-3.95,1.77-3.95,3.95c0,2.18,1.77,3.95,3.95,3.95c2.18,0,3.95-1.77,3.95-3.95C23.95,6.32,22.17,4.55,20,4.55z
		 M27.1,4.62c-1.1,0-2.11,0.5-2.82,1.33C24.73,6.7,25,7.57,25,8.5s-0.27,1.79-0.72,2.54c0.71,0.83,1.72,1.33,2.82,1.33
		c2.08,0,3.78-1.74,3.78-3.87S29.19,4.62,27.1,4.62z M29.4,7.6v1H28v0.09h1.4v1H28v1.81h-1V9.69h-0.84v-1H27V8.6h-0.84v-1H27V7.57
		L26.04,6.6l0.71-0.71l1.04,1.04l1.04-1.04l0.71,0.71l-1,1H29.4z M21.15,10.28v0.45h-1v-0.44h-1.42v-1h2.39L21.1,8.97h-1.48
		c-0.15,0-0.29-0.04-0.41-0.1H19.2V8.86C18.88,8.71,18.65,8.38,18.65,8V7.53c0-0.54,0.44-0.97,0.97-0.97h0.59V6.01h0.99v0.54h0.8v1
		h-2.39l0.02,0.32h1.48c0.15,0,0.29,0.04,0.41,0.1h0.01v0.01c0.32,0.16,0.55,0.48,0.55,0.86v0.47
		C22.09,9.84,21.67,10.27,21.15,10.28z M10.14,3.75c-1.46,0.48-2.66,1.49-3.3,2.76L5.99,6.1c0.75-1.5,2.16-2.68,3.85-3.24
		c1.73-0.57,3.56-0.46,5.15,0.32l-0.42,0.84C13.2,3.35,11.63,3.25,10.14,3.75z M12,12.68v13.62c0,1.76-1.44,3.19-3.2,3.19H3.2
		c-1.77,0-3.2-1.43-3.2-3.19V12.68c0-1.76,1.43-3.19,3.2-3.19h5.6C10.56,9.49,12,10.92,12,12.68z M0.98,12.68v13.62
		c0,1.22,1,2.21,2.22,2.21h5.6c1.22,0,2.22-0.99,2.22-2.21V12.68c0-1.22-1-2.22-2.22-2.22H3.2C1.98,10.47,0.98,11.46,0.98,12.68z
		 M7.47,27.5H4.53C4.24,27.5,4,27.27,4,27c0-0.28,0.24-0.5,0.53-0.5h2.94C7.76,26.5,8,26.72,8,27C8,27.27,7.76,27.5,7.47,27.5z
		 M20.43,14.71l0.98,0.2c-0.69,3.32-3.63,5.62-6.91,5.62c-0.47,0-0.95-0.05-1.43-0.15l0.2-0.98C16.55,20.09,19.76,17.98,20.43,14.71
		z"/>
</g>
<g id="Layer_16" class="st0">
	<path class="st1" d="M32,23.02v6.17c0,0.44-0.37,0.8-0.82,0.8H13.83c-0.45,0-0.82-0.36-0.82-0.8v-3.17H6.99v1.45
		c-0.12,1.23-1.36,1.54-2.08,1.54c-0.04,0-0.07,0-0.1,0c-0.71-0.09-1.2-0.34-1.51-0.74c-0.38-0.5-0.3-1.03-0.29-1.09l0-1.49
		C1.25,24.98,0,23.24,0,21.21V6.82C0,4.16,2.12,2,4.72,2h11.57c2.6,0,4.72,2.16,4.72,4.82v10.19h10.17c0.45,0,0.82,0.36,0.82,0.8
		v2.19h0L32,23.02L32,23.02z M4.9,28.06c0,0,1.07,0.03,1.13-0.64l0-1.4H4.72c-0.25,0-0.5-0.04-0.74-0.08v1.3
		C3.95,27.46,3.97,27.94,4.9,28.06z M16.29,3.01H4.72c-1.79,0-3.3,1.3-3.65,3.03h18.88C19.59,4.31,18.09,3.01,16.29,3.01z
		 M20.03,7.04H0.98v14.17c0,2.1,1.67,3.81,3.73,3.81h8.29v-2h0v-3.01h0v-0.99H0.99v-1h12.01v-0.2c0-0.44,0.37-0.8,0.82-0.8h6.2V7.04
		z M30.98,18.02H14.03v1.99h16.94V18.02z M30.98,23.02H14.03v5.97h16.94V23.02z M4.5,20.02c0.82,0,1.5,0.67,1.5,1.5
		c0,0.83-0.67,1.5-1.5,1.5S3,22.35,3,21.52C3,20.69,3.67,20.02,4.5,20.02z M4.5,22.04c0.28,0,0.52-0.23,0.52-0.52
		C5.01,21.23,4.78,21,4.5,21c-0.29,0-0.52,0.23-0.52,0.52C3.98,21.81,4.21,22.04,4.5,22.04z M8.55,4h3.91c0.29,0,0.53,0.22,0.53,0.5
		c0,0.28-0.24,0.5-0.53,0.5H8.55C8.25,5,8.02,4.78,8.02,4.5C8.02,4.22,8.25,4,8.55,4z"/>
</g>
<g id="Layer_17" class="st0">
	<path class="st1" d="M27.85,26.5H4.15c-2.01,0-3.65-1.63-3.65-3.63V9.13c0-2,1.64-3.63,3.65-3.63h23.69c2.01,0,3.65,1.63,3.65,3.63
		v13.74C31.5,24.87,29.86,26.5,27.85,26.5z M30.5,9.13c0-1.46-1.19-2.64-2.65-2.64H4.15c-1.46,0-2.65,1.18-2.65,2.64v13.74
		c0,1.45,1.19,2.64,2.65,2.64h23.69c1.46,0,2.65-1.18,2.65-2.64V9.13z M26.5,9.52h1V23.5h-1V9.52z M21.49,22.49h0.99v1h-0.99V22.49z
		 M21.51,9.52h0.97v9.92h-0.97V9.52z M17.5,22.49h0.99v1H17.5V22.49z M17.51,9.52h0.97v9.92h-0.97V9.52z M13.51,22.49h0.99v1h-0.99
		V22.49z M13.53,9.52h0.97v9.92h-0.97V9.52z M9.49,22.49h0.99v1H9.49V22.49z M9.51,9.52h0.97v9.92H9.51V9.52z M4.48,9.52h1V23.5h-1
		V9.52z"/>
</g>
<g id="Layer_18" class="st0">
	<path class="st1" d="M31.49,19.98l-13.49,0v7.73c0,1.81-1.49,3.28-3.33,3.28H3.33C1.49,31,0,29.52,0,27.71V4.29
		C0,2.48,1.49,1,3.33,1h11.34C16.51,1,18,2.16,18,3.58v1.41h13.49C31.77,4.99,32,5.22,32,5.5v13.97
		C32,19.75,31.77,19.98,31.49,19.98z M16.98,3.58c0-0.85-1.06-1.57-2.31-1.57H3.33c-1.27,0-2.31,1.02-2.31,2.28v23.42
		c0,1.26,1.04,2.28,2.31,2.28h11.34c1.27,0,2.31-1.02,2.31-2.28v-7.73H10.5c-0.14,0-0.26-0.05-0.36-0.15
		c-0.1-0.1-0.15-0.23-0.15-0.36V5.5c0-0.28,0.23-0.51,0.51-0.51h6.48V3.58z M30.98,6.01H11.01v12.98l19.97,0V6.01z M16.5,10h1.23
		c-0.12-0.2-0.2-0.42-0.2-0.66c0-0.36,0.14-0.7,0.4-0.96c0.53-0.53,1.4-0.53,1.94,0l0,0c0.17,0.17,0.45,0.56,0.62,0.99
		c0.18-0.43,0.46-0.83,0.63-0.99c0,0,0,0,0,0c0.53-0.53,1.4-0.53,1.94,0c0.26,0.26,0.4,0.59,0.4,0.96c0,0.24-0.09,0.46-0.2,0.66
		h1.24c0.27,0,0.49,0.24,0.49,0.54v1.93c0,0.3-0.22,0.54-0.49,0.54h-0.5v4.52c0,0.26-0.23,0.47-0.51,0.47h-5.97
		c-0.28,0-0.51-0.21-0.51-0.47V13h-0.5c-0.27,0-0.49-0.24-0.49-0.54v-1.93C16.01,10.24,16.23,10,16.5,10z M22.36,9.06
		c-0.15-0.15-0.39-0.15-0.54,0c-0.25,0.24-0.47,0.71-0.5,0.93h0.39c0.22-0.09,0.48-0.22,0.66-0.4c0.07-0.07,0.11-0.17,0.11-0.27
		S22.43,9.14,22.36,9.06z M20.99,17.05h1.99V13h-1.99V17.05z M20.99,11.99H24v-0.98h-2.49c-0.05,0.01-0.1,0.02-0.15,0.02
		c-0.05,0-0.1-0.01-0.16-0.02h-0.22V11.99z M19.17,9.06C19.09,8.99,19,8.95,18.9,8.95c-0.1,0-0.2,0.04-0.27,0.11
		c-0.07,0.07-0.11,0.17-0.11,0.27s0.04,0.2,0.11,0.27c0.18,0.18,0.46,0.32,0.7,0.4h0.38C19.68,9.83,19.43,9.32,19.17,9.06z
		 M18.02,17.05H20V13h-1.99V17.05z M16.99,11.99H20v-0.98h-0.22c-0.05,0.01-0.1,0.02-0.15,0.02c-0.05,0-0.1-0.02-0.15-0.02h-2.49
		V11.99z M11.99,27.5c0,0.27-0.22,0.49-0.49,0.49h-5c-0.27,0-0.49-0.22-0.49-0.49c0-0.27,0.22-0.49,0.49-0.49h5
		C11.77,27.01,11.99,27.23,11.99,27.5z M23.05,22.73l-2.17,2.26h7.25l-2.16-2.26L26.66,22l3.35,3.49l-3.35,3.49l-0.69-0.72
		l2.16-2.26h-7.25l2.17,2.26l-0.69,0.72l-3.35-3.49L22.36,22L23.05,22.73z"/>
</g>
<g id="Layer_19" class="st0">
	<path class="st1" d="M25.9,17.84c-0.39,0-1,0.27-1.29,0.57l-2.16,2.23c-0.28,0.29-0.45,0.37-0.65,0.37c-0.12,0-0.22-0.03-0.28-0.06
		c-0.15-0.07-0.5-0.3-0.5-0.99v-1.61c0-0.28-0.22-0.51-0.49-0.51H20.2c-0.77,0-1.51-0.17-2.19-0.44v10.38c0,1.78-1.43,3.23-3.2,3.23
		H3.2C1.43,31,0,29.55,0,27.77V5.23C0,3.45,1.43,1,3.2,1h11.61C16.57,1,18,2.12,18,3.5v1.92C18.65,5.16,19.34,5,20.08,5h5.85
		C29.27,5.01,32,7.89,32,11.42C32,14.96,29.26,17.84,25.9,17.84z M17.02,3.5c0-0.82-1.01-1.51-2.22-1.51H3.2
		c-1.22,0-2.22,2-2.22,3.24v22.55c0,1.24,1,2.24,2.22,2.24h11.61c1.22,0,2.22-1,2.22-2.24V17h0.18c-1.89-1.1-3.2-3.17-3.2-5.58
		c0-2.35,1.22-4.39,3.02-5.51V3.5z M25.92,6.03h-5.84c-2.81,0.01-5.1,2.43-5.1,5.39c0,2.97,2.39,5.39,5.21,5.39h0.33
		c0.81,0,1.47,0.69,1.47,1.54v1.42l1.94-2.09c0.48-0.49,1.33-0.87,1.97-0.87c2.82,0,5.12-2.42,5.12-5.39
		C31.02,8.45,28.74,6.04,25.92,6.03z M21.05,10.17v0.7c0,0.05,0.03,0.09,0.06,0.13h2.58c0.72,0,1.31,0.52,1.31,1.15v0.7
		c0,0.64-0.59,1.15-1.31,1.15h-3.68v-0.92h3.68c0.15,0,0.27-0.11,0.27-0.24v-0.7c0-0.05-0.03-0.09-0.06-0.13h-2.58
		c-0.72,0-1.31-0.52-1.31-1.15v-0.7c0-0.64,0.59-1.15,1.31-1.15h3.68v0.92h-3.68C21.17,9.93,21.05,10.04,21.05,10.17z M22.01,8h0.98
		v1h-0.98V8z M22.99,15.01h-0.98v-1h0.98V15.01z M11.51,28.01H6.5c-0.28,0-0.5-0.23-0.5-0.51c0-0.28,0.22-0.51,0.5-0.51h5.01
		c0.28,0,0.5,0.23,0.5,0.51C12.01,27.78,11.78,28.01,11.51,28.01z"/>
</g>
<g id="Layer_20" class="st0">
	<path class="st1" d="M28.13,27.5c-0.96,0-1.88-0.33-2.59-0.94l-4.58-5.07c-1.33,0-8.58,0-9.91,0l-4.56,5.04
		c-0.74,0.64-1.66,0.97-2.62,0.97C1.73,27.5,0,25.85,0,23.82v-9.71C0.19,8.72,4.8,4.5,10.51,4.5h10.98c5.71,0,10.33,4.22,10.51,9.6
		l0,9.73C32,25.85,30.26,27.5,28.13,27.5z M31,14.11c-0.17-4.83-4.34-8.62-9.51-8.62H10.51c-5.17,0-9.34,3.8-9.51,8.64l0,9.69
		c0,1.48,1.29,2.68,2.87,2.68c0.72,0,1.41-0.25,1.94-0.7l4.57-5.05c0.16-0.16,0.37-0.25,0.6-0.25c1.15,0,8.9,0,10.05,0
		c0.23,0,0.44,0.09,0.6,0.25l4.59,5.08c0.5,0.42,1.19,0.67,1.91,0.67c1.59,0,2.87-1.2,2.87-2.68V14.11z M25.99,17.5
		c-1.1,0-2-0.9-2-2c0-1.11,0.9-2,2-2c1.1,0,2,0.9,2,2C27.99,16.6,27.09,17.5,25.99,17.5z M25.99,14.41c-0.6,0-1.09,0.49-1.09,1.09
		c0,0.6,0.49,1.09,1.09,1.09c0.6,0,1.09-0.49,1.09-1.09C27.08,14.9,26.59,14.41,25.99,14.41z M21,12.52c-1.1,0-2-0.9-2-2
		c0-1.1,0.9-2,2-2c1.1,0,2,0.9,2,2C23,11.62,22.1,12.52,21,12.52z M21,9.42c-0.6,0-1.09,0.49-1.09,1.09s0.49,1.09,1.09,1.09
		c0.6,0,1.09-0.49,1.09-1.09S21.6,9.42,21,9.42z M10,18.5H9v-4H5.01v-0.99H9v-4h1v4H14v0.99H10V18.5z"/>
</g>
<g id="Layer_21" class="st0">
	<path class="st1" d="M28.87,26.02h-4.04c-0.26,2.06,0.15,3.27,0.16,3.28c0.02,0.04,0.03,0.08,0.03,0.13
		c0.05,0.19,0.08,0.36,0.08,0.53c0,1.13-0.94,2.04-2.1,2.04s-2.1-0.92-2.1-2.04c0-0.17,0.03-0.35,0.08-0.53
		c0.01-0.04,0.02-0.09,0.03-0.13c0-0.01,0.41-1.21,0.15-3.28h-4.04c-1.17,0-2.13-0.93-2.13-2.07v-4.44c0-0.28,0.23-0.5,0.52-0.5
		h14.98c0.29,0,0.52,0.22,0.52,0.5v4.44C31,25.09,30.04,26.02,28.87,26.02z M29.96,20.02H16.01v3.93c0,0.59,0.49,1.06,1.1,1.06h4.49
		c0.25,0,0.47,0.18,0.51,0.43c0.37,2.28,0.01,3.77-0.12,4.14c0,0.02-0.01,0.04-0.02,0.06c-0.04,0.12-0.06,0.22-0.06,0.32
		c0,0.57,0.48,1.04,1.07,1.04c0.59,0,1.07-0.47,1.07-1.04c0-0.09-0.02-0.19-0.06-0.32c-0.01-0.02-0.01-0.04-0.02-0.07
		c-0.13-0.37-0.49-1.86-0.12-4.14c0.04-0.24,0.26-0.43,0.51-0.43h4.49c0.6,0,1.09-0.48,1.09-1.06V20.02z M30.48,18H15.51
		C15.23,18,15,17.8,15,17.55v-2.9c0-0.14,0.07-0.27,0.2-0.36c0.13-0.09,0.29-0.12,0.45-0.08l2.75,0.63
		c1.25,0.28,2.63,0.31,4.09,0.08c0.57-0.09,1.13-0.24,1.72-0.4c0.74-0.2,1.51-0.41,2.32-0.49c1.19-0.12,2.54,0.05,4.12,0.53
		c0.21,0.06,0.35,0.23,0.35,0.43v2.57C31,17.8,30.76,18,30.48,18z M29.96,15.31c-1.29-0.35-2.38-0.48-3.32-0.39
		c-0.72,0.07-1.41,0.26-2.13,0.45c-0.59,0.16-1.2,0.33-1.84,0.43c-1.61,0.26-3.14,0.22-4.53-0.1l-2.1-0.48v1.86h13.93V15.31z
		 M7.48,27C7.22,27,7,26.78,7,26.5S7.22,26,7.48,26h4.04c0.27,0,0.48,0.22,0.48,0.5S11.78,27,11.52,27H7.48z M18,3.3
		c0-1.26-1.01-2.29-2.25-2.29H4.24C3,1.01,2,2.04,2,3.3V27.7c0,1.26,1.01,2.29,2.25,2.29h11.7V31H4.24C2.46,31,1,29.52,1,27.7V3.3
		C1,1.48,2.46,0,4.24,0h11.51C17.54,0,19,1.48,19,3.3v9.32H18V3.3z"/>
</g>
<g id="Layer_22">
	<path class="st2" d="M29.93,18.38V17.7h1.57v1.25c0,0.09,0,0.15-0.02,0.31c-0.07,0.85-0.77,1.15-1.56,1.15
		c-0.78,0-1.48-0.3-1.56-1.15c-0.01-0.16-0.02-0.22-0.02-0.31v-1.96c0-0.08,0.01-0.23,0.02-0.31c0.1-0.87,0.77-1.15,1.56-1.15
		c0.79,0,1.47,0.28,1.56,1.15c0.01,0.15,0.01,0.31,0.01,0.31v0.15h-1.12v-0.26c0,0,0-0.11-0.01-0.18c-0.02-0.1-0.1-0.34-0.44-0.34
		c-0.32,0-0.42,0.22-0.44,0.34c-0.02,0.06-0.02,0.15-0.02,0.22v2.13c0,0.06,0,0.12,0.01,0.18c0.02,0.13,0.13,0.34,0.45,0.34
		c0.32,0,0.44-0.21,0.45-0.34c0.01-0.05,0.01-0.12,0.01-0.18v-0.68H29.93z M28.51,3.49H2.5v9.01H1.51v-10h27.98v10h-0.99V3.49z
		 M3.6,16.68v0.33h-1.1v-0.29c0-0.25-0.15-0.42-0.41-0.42c-0.28,0-0.38,0.17-0.41,0.32c-0.01,0.05-0.02,0.15,0,0.24
		c0.13,0.55,1.81,0.84,1.99,1.82c0.02,0.1,0.06,0.36,0,0.76c-0.11,0.78-0.76,1.07-1.57,1.07c-0.83,0-1.61-0.31-1.61-1.36v-0.36h1.19
		l0,0.45c0,0.25,0.16,0.42,0.44,0.42c0.3,0,0.4-0.16,0.43-0.31c0.02-0.09,0.03-0.23-0.01-0.34c-0.23-0.6-1.8-0.88-2-1.83
		c-0.05-0.24-0.04-0.42-0.01-0.63c0.12-0.76,0.76-1.04,1.55-1.04C2.73,15.51,3.6,15.67,3.6,16.68z M8.03,20.32H6.84L6.24,16
		l-0.62,4.32h-1.2l0.82-4.67h1.97L8.03,20.32z M6.99,9.05c0.2-0.26,0.45-0.39,0.73-0.39c0.15,0,0.29,0.04,0.4,0.11
		c0.11,0.08,0.2,0.18,0.25,0.32C8.57,8.8,8.82,8.66,9.11,8.66c0.23,0,0.4,0.08,0.53,0.23c0.13,0.16,0.19,0.37,0.19,0.66v1.9H9.3
		V9.62c0-0.27-0.13-0.4-0.38-0.4c-0.09,0-0.17,0.02-0.25,0.05C8.59,9.3,8.51,9.35,8.43,9.42v0.12v1.9H7.9V9.62
		c0-0.27-0.13-0.4-0.38-0.4c-0.09,0-0.17,0.02-0.25,0.05C7.2,9.3,7.12,9.35,7.03,9.42v2.02H6.5V8.72h0.49V9.05z M13.84,20.32h-1.11
		L12.7,16l-0.76,4.32h-1.12L10.05,16l-0.03,4.32H8.92l0.1-4.67h1.81l0.56,3.65l0.56-3.65h1.81L13.84,20.32z M11.1,9.19
		c-0.19,0-0.39,0.05-0.58,0.14l-0.14-0.46c0.26-0.14,0.53-0.21,0.8-0.21c0.29,0,0.52,0.08,0.69,0.23c0.16,0.15,0.25,0.37,0.25,0.66
		v1.9h-0.48v-0.38c-0.15,0.29-0.4,0.43-0.73,0.43c-0.24,0-0.42-0.07-0.55-0.22c-0.13-0.14-0.19-0.34-0.19-0.6
		c0-0.32,0.11-0.56,0.34-0.71c0.23-0.15,0.59-0.23,1.09-0.23V9.61C11.59,9.33,11.43,9.19,11.1,9.19z M10.9,10.27
		c-0.15,0.08-0.22,0.2-0.22,0.37c0,0.24,0.12,0.36,0.36,0.36c0.22,0,0.4-0.09,0.55-0.28v-0.57C11.27,10.14,11.04,10.19,10.9,10.27z
		 M14.57,7.58v3.86h-0.48v-0.38c-0.16,0.29-0.39,0.44-0.69,0.44c-0.28,0-0.5-0.12-0.66-0.37c-0.16-0.25-0.23-0.6-0.23-1.06
		c0-0.45,0.08-0.8,0.24-1.05c0.16-0.25,0.39-0.38,0.68-0.38c0.13,0,0.24,0.02,0.35,0.07s0.2,0.12,0.27,0.22V7.58H14.57z M13.81,9.26
		c-0.09-0.04-0.18-0.07-0.27-0.07c-0.33,0-0.49,0.29-0.49,0.87c0,0.59,0.17,0.89,0.52,0.89c0.09,0,0.17-0.02,0.25-0.06
		c0.07-0.04,0.15-0.11,0.22-0.19V9.44C13.98,9.36,13.9,9.3,13.81,9.26z M22.57,9.14c0.16-0.31,0.37-0.47,0.65-0.47
		c0.11,0,0.2,0.02,0.28,0.07l-0.11,0.56C23.3,9.26,23.2,9.24,23.1,9.24c-0.11,0-0.2,0.02-0.28,0.07c-0.08,0.04-0.14,0.11-0.2,0.21
		v1.92h-0.53V8.72h0.48V9.14z M22.24,19c0,0.09,0,0.26-0.01,0.31c-0.08,0.87-0.73,1.16-1.55,1.16c-0.82,0-1.47-0.28-1.54-1.16
		c0-0.05-0.01-0.22-0.01-0.31v-3.34h1.12v3.45c0,0.06,0,0.13,0.01,0.18c0.02,0.12,0.12,0.34,0.42,0.34c0.31,0,0.4-0.22,0.43-0.34
		c0.01-0.05,0.01-0.12,0.01-0.18v-3.45h1.12V19z M20.61,8.66c0.34,0,0.61,0.12,0.79,0.36c0.18,0.24,0.28,0.6,0.28,1.07
		c0,0.47-0.09,0.82-0.28,1.06c-0.19,0.24-0.45,0.36-0.8,0.36c-0.34,0-0.61-0.12-0.79-0.36c-0.18-0.24-0.28-0.59-0.28-1.06
		c0-0.47,0.09-0.82,0.28-1.07C20,8.78,20.26,8.66,20.61,8.66z M20.21,10.76c0.09,0.15,0.22,0.22,0.39,0.22
		c0.17,0,0.31-0.07,0.4-0.22c0.09-0.15,0.13-0.37,0.13-0.67c0-0.6-0.17-0.9-0.52-0.9c-0.35,0-0.53,0.3-0.53,0.9
		C20.08,10.38,20.12,10.6,20.21,10.76z M17.99,16.7v0.32h-1.09v-0.28c0-0.25-0.15-0.42-0.41-0.42c-0.27,0-0.37,0.16-0.4,0.31
		c-0.01,0.05-0.02,0.15,0,0.24c0.12,0.54,1.79,0.83,1.97,1.8c0.02,0.1,0.06,0.36,0.01,0.76c-0.1,0.77-0.76,1.06-1.55,1.06
		c-0.83,0-1.59-0.31-1.59-1.34v-0.36h1.18v0.45c0,0.25,0.17,0.42,0.44,0.42c0.29,0,0.39-0.16,0.43-0.31
		c0.02-0.08,0.03-0.23-0.01-0.34c-0.23-0.6-1.79-0.87-1.98-1.81c-0.05-0.23-0.04-0.42-0.01-0.62c0.12-0.76,0.75-1.03,1.53-1.03
		C17.13,15.53,17.99,15.69,17.99,16.7z M16.18,10.97c0.21,0,0.41-0.06,0.6-0.18l0.19,0.45c-0.11,0.08-0.24,0.15-0.39,0.2
		c-0.15,0.05-0.3,0.07-0.46,0.07c-0.37,0-0.65-0.12-0.85-0.37c-0.2-0.25-0.3-0.6-0.3-1.04c0-0.45,0.09-0.81,0.28-1.06
		c0.19-0.25,0.45-0.37,0.79-0.37c0.33,0,0.58,0.11,0.76,0.35c0.18,0.23,0.27,0.55,0.27,0.97c0,0.1-0.01,0.2-0.02,0.3h-1.54
		C15.56,10.73,15.78,10.97,16.18,10.97z M16.55,9.85c-0.01-0.21-0.05-0.38-0.14-0.5c-0.09-0.12-0.21-0.18-0.37-0.18
		c-0.3,0-0.47,0.22-0.51,0.67H16.55z M18.57,7.77c0.17-0.17,0.4-0.25,0.7-0.25c0.1,0,0.19,0.01,0.26,0.02v0.52
		c-0.08-0.01-0.17-0.02-0.26-0.02c-0.28,0-0.42,0.15-0.42,0.45v0.24h0.6v0.51h-0.6v2.21h-0.53V9.23h-0.39V8.72h0.39V8.48
		C18.33,8.17,18.41,7.93,18.57,7.77z M27.19,15.66v4.62h-1.58l-1.12-3.88l0.06,3.88h-1.09v-4.62h1.64l1.04,3.76l-0.06-3.76H27.19z
		 M2.5,28.48h26.01v-4.97h0.99v5.99H1.51v-5.99H2.5V28.48z"/>
</g>
</svg>
